/* XPM */
static char *koog_cancel[]={
"16 16 5 1",
"# c #000000",
". c #800000",
"b c #c00000",
"a c #ffc0c0",
"c c #ffffff",
"....########....",
"...#aaaaaaaa#...",
"..#aabbbbbbb.#..",
".#aabbbbbbbbb.#.",
"#aabccbbbbccbb.#",
"#abbcccbbcccbb.#",
"#abbbccccccbbb.#",
"#abbbbccccbbbb.#",
"#abbbbccccbbbb.#",
"#abbbccccccbbb.#",
"#abbcccbbcccbb.#",
"#abbccbbbbccbb.#",
".#.bbbbbbbbbb.#.",
"..#.bbbbbbbb.#..",
"...#........#...",
"....########...."};
